<svg width="156" height="39" viewBox="0 0 156 39" fill="none" xmlns="http://www.w3.org/2000/svg">
<path d="M44.1792 26.5249H43.9714L43.7556 20.013L43.1406 2.57798C45.0588 2.57798 47.4656 2.52757 48.3313 4.67877C49.1064 6.60524 47.9337 9.4894 47.4753 11.4005C46.3101 16.2594 44.5812 21.5458 44.1792 26.5249Z" fill="#34623F"/>
<path d="M45.6322 28.6255C45.4517 27.1861 46.2302 25.3914 46.6098 24.0042C47.3518 21.2929 47.9244 18.5363 48.6169 15.8118C48.8616 14.8497 49.0271 12.414 49.9032 11.8356C51.4597 10.8077 54.1215 13.7305 54.0879 15.1816C54.0315 17.6189 51.2987 20.4318 49.9646 22.3236C48.4964 24.4054 47.0544 26.5112 45.6322 28.6255Z" fill="#34623F"/>
<path fill-rule="evenodd" clip-rule="evenodd" d="M36.7004 0.812366C39.1077 0.904322 40.8154 1.99183 41.3386 4.46866C41.5825 5.62316 41.5406 6.82791 41.4988 8.02836C41.4717 8.80914 41.4446 9.58816 41.4962 10.3504C41.7891 14.6756 41.827 19.0164 41.865 23.3571V23.3612C41.8736 24.3458 41.8822 25.3305 41.8938 26.315C41.9012 26.9427 41.9522 27.5918 42.0038 28.248C42.1754 30.4308 42.3531 32.692 40.9516 34.5042C39.1049 36.8919 35.5918 36.9491 32.6272 36.9975C32.0936 37.0062 31.5777 37.0145 31.0925 37.0362C27.2563 37.2077 23.4112 37.5154 19.5704 37.8227C17.455 37.9919 15.3408 38.1611 13.2302 38.3073C12.3748 38.3665 11.4994 38.4702 10.6177 38.5746C8.9183 38.7759 7.19515 38.98 5.54524 38.8738C3.65417 38.752 1.80438 37.5626 1.07619 35.7677C0.528356 34.4172 0.545588 32.9425 0.562571 31.4896C0.568882 30.9496 0.575156 30.4125 0.552366 29.886C0.516834 29.0661 0.479604 28.2467 0.442385 27.4275C0.323826 24.8179 0.205327 22.2098 0.14194 19.593C0.131561 19.1636 0.100958 18.742 0.0708098 18.3266C-0.0402501 16.7965 -0.145085 15.3523 0.790801 13.9222C2.26985 11.6618 5.26659 10.7753 7.91263 9.99251L8.19692 9.90832C8.19497 11.5067 8.17724 12.9333 8.1601 14.3094C8.14031 15.9034 8.12133 17.4296 8.12865 19.0764C8.12236 20.5445 8.17111 22.0001 8.34256 23.4121C8.54904 25.1117 9.09561 26.857 9.96134 28.3298C15.3044 37.418 27.9492 36.2046 32.1379 26.9458C32.3409 26.4973 32.3766 26.3822 32.5073 25.9605L32.5374 25.8632C31.9647 26.0484 31.8195 26.0888 31.4969 26.1785C31.4069 26.2035 31.3031 26.2324 31.1724 26.2693C31.1058 26.4046 31.0059 26.6752 31.0059 26.6752C29.0899 30.9643 25.1865 33.2848 20.8842 33.3034C17.7755 33.3169 14.7312 31.9109 12.5155 29.5776C9.61865 26.5273 9.19506 22.7961 9.17939 18.9315L9.18318 17.935C9.19256 15.5083 9.20189 13.0823 9.19674 10.6555C9.19761 10.2949 9.20043 9.94122 9.20623 9.60121C9.37383 9.54815 9.53835 9.4946 9.69928 9.44017C11.5759 8.80517 13.447 8.15277 15.316 7.49414C15.3458 8.30467 15.3456 9.01812 15.3431 10.0336C15.3278 10.4099 15.3344 10.7664 15.3404 11.0869C15.3428 11.2136 15.3451 11.3346 15.3458 11.449C16.1265 11.4565 16.8821 11.4486 17.6287 11.4408C18.8322 11.4283 20.0124 11.416 21.2368 11.4684L21.5659 12.311L21.5662 12.3118C22.0416 13.5292 22.2746 14.1258 23.3814 16.9656C22.174 16.9656 21.0362 17.0103 19.9227 17.054C18.8561 17.0958 17.8119 17.1368 16.7505 17.1368C16.4179 17.1368 16.17 17.1406 15.9454 17.1441C15.7596 17.1469 15.5899 17.1495 15.4015 17.1495C15.4015 17.3896 15.4004 17.6297 15.3993 17.8697V17.8704C15.3979 18.1901 15.3965 18.5097 15.3975 18.8293C15.3876 22.4408 15.5571 26.3031 19.7365 27.3786C20.4847 27.5711 21.5168 27.3857 21.9723 27.2699C22.4277 27.1542 23.2394 26.851 24.0806 26.2379C24.6776 25.8028 25.2459 25.1866 25.5122 24.8145C25.4235 24.5439 25.3495 24.2882 25.2509 23.9474L25.2506 23.9466C25.2014 23.7764 25.1459 23.5849 25.0794 23.3597C22.8153 26.8444 19.5686 27.1827 17.5074 24.5977C16.3374 23.1304 16.3472 20.7622 16.3549 18.8637C16.3555 18.7129 16.3561 18.565 16.3561 18.4207C19.3402 18.4207 22.2126 18.2977 25.0187 18.1776L25.2417 18.168C24.1989 15.6693 23.8083 14.7495 23.1264 13.1437L23.1261 13.143C22.7874 12.3456 22.3769 11.379 21.779 9.9659C20.8293 9.9659 19.8796 9.96816 18.9299 9.97042H18.9287C18.0616 9.97246 17.1943 9.97449 16.3273 9.97483C16.3475 9.03509 16.3514 8.09426 16.336 7.15447L16.3363 7.13397C17.0441 6.88372 17.7519 6.63286 18.4595 6.38201L18.4618 6.38118C21.4899 5.30778 24.5182 4.23427 27.5616 3.20831C28.224 2.985 28.8934 2.73382 29.5691 2.48026C31.8781 1.61381 34.2621 0.719197 36.7004 0.812366ZM33.5444 21.8397C33.5444 24.0051 31.8087 25.7605 29.6676 25.7605C27.5266 25.7605 25.7908 24.0051 25.7908 21.8397C25.7908 19.6743 27.5266 17.9189 29.6676 17.9189C31.8087 17.9189 33.5444 19.6743 33.5444 21.8397Z" fill="#34623F"/>
<path d="M27.6976 20.5722V21.7799H28.8254V20.5722H29.4717V23.5122H28.8254V22.3221H27.6976V23.5122H27.0469V20.5722H27.6976ZM31.2549 21.7799C31.5181 21.8593 31.7248 21.9636 31.8752 22.0929C32.0285 22.2221 32.1051 22.4029 32.1051 22.635C32.1051 22.8172 32.0632 22.9788 31.9793 23.1199C31.8955 23.258 31.7682 23.3682 31.5976 23.4505C31.4298 23.5298 31.2231 23.5695 30.9773 23.5695C30.8182 23.5695 30.652 23.5504 30.4784 23.5122C30.3078 23.471 30.1488 23.4181 30.0013 23.3535L30.1921 22.8598C30.4726 22.9862 30.7344 23.0494 30.9773 23.0494C31.1219 23.0494 31.2346 23.0214 31.3156 22.9656C31.3995 22.9068 31.4414 22.8231 31.4414 22.7144C31.4414 22.6439 31.4154 22.5851 31.3634 22.5381C31.3113 22.4881 31.2506 22.4499 31.1812 22.4235C31.1146 22.394 31.0033 22.3515 30.8472 22.2956C30.6794 22.2428 30.5377 22.1854 30.422 22.1237C30.3063 22.062 30.208 21.9739 30.1271 21.8593C30.049 21.7447 30.01 21.5977 30.01 21.4185C30.01 21.248 30.0519 21.0938 30.1357 20.9557C30.2225 20.8176 30.3483 20.7088 30.5131 20.6295C30.678 20.5502 30.8761 20.5105 31.1074 20.5105C31.2665 20.5105 31.4313 20.531 31.6019 20.5722C31.7725 20.6104 31.933 20.6618 32.0834 20.7265L31.8882 21.2113C31.7668 21.1584 31.6366 21.1158 31.4978 21.0835C31.3619 21.0482 31.2318 21.0306 31.1074 21.0306C30.9802 21.0306 30.8746 21.0585 30.7908 21.1144C30.7098 21.1702 30.6693 21.2466 30.6693 21.3436C30.6693 21.4258 30.6924 21.4919 30.7387 21.5419C30.785 21.5918 30.8428 21.6315 30.9122 21.6609C30.9845 21.6903 31.0988 21.73 31.2549 21.7799Z" fill="#34623F"/>
<path d="M55.8086 16.0978V13.5193H67.5208V16.0978H63.2697V28.2191H60.0163V16.0978H55.8086ZM72.5305 28.5497C71.4607 28.5497 70.5134 28.3293 69.6892 27.8885C68.865 27.4478 68.2143 26.7939 67.7372 25.9271C67.2746 25.0602 67.0431 24.0097 67.0431 22.7755C67.0431 20.8508 67.5056 19.3669 68.4312 18.3237C69.3709 17.2658 70.7015 16.7369 72.422 16.7369C75.7768 16.7369 77.4539 18.9702 77.4539 23.4367H70.123C70.1083 24.2742 70.3182 24.928 70.752 25.3982C71.1857 25.8683 71.7784 26.1034 72.5305 26.1034C73.0944 26.1034 73.68 26.03 74.2873 25.883C74.9092 25.7214 75.4949 25.5084 76.0441 25.2439L76.9117 27.5359C76.2323 27.8445 75.509 28.0869 74.7428 28.2632C73.9766 28.4542 73.2392 28.5497 72.5305 28.5497ZM74.4391 21.4312C74.3524 20.6084 74.1355 20.0207 73.7885 19.6681C73.4561 19.3007 72.9643 19.1171 72.3136 19.1171C71.6775 19.1171 71.1787 19.3081 70.817 19.6901C70.4554 20.0574 70.2168 20.6378 70.1013 21.4312H74.4391ZM92.1284 16.803C93.6754 16.803 94.8108 17.1189 95.5336 17.7507C96.2564 18.3678 96.618 19.3742 96.618 20.77V28.2191H93.6032V21.343C93.6032 20.006 92.8587 19.3375 91.3692 19.3375C90.7473 19.3375 90.198 19.4918 89.7209 19.8003C89.7789 20.1382 89.8076 20.4615 89.8076 20.77V28.2191H86.7928V21.343C86.7928 20.006 86.0483 19.3375 84.5588 19.3375C83.9662 19.3375 83.3805 19.4844 82.802 19.7783V28.2191H79.7872V18.0372C80.3798 17.7139 81.2257 17.4274 82.3248 17.1777C83.438 16.9279 84.4357 16.803 85.3179 16.803C86.7782 16.803 87.8556 17.0675 88.5496 17.5964C89.0989 17.3467 89.6845 17.1557 90.3065 17.0234C90.9425 16.8765 91.5498 16.803 92.1284 16.803ZM104.689 16.7369C106.467 16.7369 107.819 17.2218 108.745 18.1915C109.685 19.1465 110.154 20.6745 110.154 22.7755C110.154 24.5386 109.713 25.9418 108.831 26.9849C107.964 28.0281 106.778 28.5497 105.274 28.5497C104.32 28.5497 103.402 28.3587 102.52 27.9767V32.3183H99.57V17.8609C101.32 17.1263 103.026 16.7516 104.689 16.7369ZM104.428 26.0593C105.354 26.0593 106.033 25.7949 106.467 25.2659C106.916 24.7223 107.14 23.8628 107.14 22.6874C107.14 21.5854 106.937 20.7627 106.532 20.219C106.142 19.6754 105.484 19.4036 104.558 19.4036C104.096 19.4036 103.713 19.4256 103.409 19.4697C103.12 19.5138 102.823 19.602 102.52 19.7342V25.5524C103.055 25.8903 103.691 26.0593 104.428 26.0593ZM112.511 12.8801H115.505V28.2191H112.511V12.8801ZM123.344 28.5497C122.274 28.5497 121.326 28.3293 120.502 27.8885C119.678 27.4478 119.027 26.7939 118.55 25.9271C118.088 25.0602 117.856 24.0097 117.856 22.7755C117.856 20.8508 118.319 19.3669 119.244 18.3237C120.184 17.2658 121.515 16.7369 123.235 16.7369C126.59 16.7369 128.267 18.9702 128.267 23.4367H120.936C120.921 24.2742 121.131 24.928 121.565 25.3982C121.999 25.8683 122.591 26.1034 123.344 26.1034C123.907 26.1034 124.493 26.03 125.1 25.883C125.722 25.7214 126.308 25.5084 126.857 25.2439L127.725 27.5359C127.045 27.8445 126.322 28.0869 125.556 28.2632C124.79 28.4542 124.052 28.5497 123.344 28.5497ZM125.252 21.4312C125.165 20.6084 124.949 20.0207 124.602 19.6681C124.269 19.3007 123.777 19.1171 123.127 19.1171C122.491 19.1171 121.992 19.3081 121.63 19.6901C121.268 20.0574 121.03 20.6378 120.914 21.4312H125.252ZM133.962 13.5193V19.5579H139.601V13.5193H142.833V28.2191H139.601V22.2686H133.962V28.2191H130.709V13.5193H133.962ZM151.749 19.5579C153.065 19.9546 154.098 20.4762 154.85 21.1226C155.617 21.7691 156 22.6727 156 23.8334C156 24.7443 155.79 25.5524 155.371 26.2577C154.952 26.9482 154.315 27.4992 153.462 27.9106C152.624 28.3073 151.59 28.5056 150.361 28.5056C149.565 28.5056 148.734 28.4101 147.867 28.2191C147.014 28.0134 146.218 27.749 145.481 27.4257L146.435 24.9574C147.838 25.5892 149.146 25.905 150.361 25.905C151.084 25.905 151.648 25.7655 152.053 25.4863C152.472 25.1925 152.682 24.7737 152.682 24.2301C152.682 23.8775 152.551 23.5836 152.291 23.3485C152.031 23.0988 151.727 22.9078 151.38 22.7755C151.048 22.6286 150.491 22.4156 149.71 22.1364C148.871 21.872 148.163 21.5854 147.585 21.2769C147.006 20.9684 146.515 20.5276 146.11 19.9546C145.719 19.3816 145.524 18.647 145.524 17.7507C145.524 16.8985 145.734 16.1272 146.153 15.4366C146.587 14.7461 147.216 14.2025 148.04 13.8058C148.864 13.4091 149.855 13.2107 151.011 13.2107C151.807 13.2107 152.631 13.3136 153.484 13.5193C154.337 13.7103 155.139 13.9674 155.892 14.2906L154.916 16.7149C154.308 16.4504 153.658 16.2374 152.964 16.0758C152.284 15.8994 151.633 15.8113 151.011 15.8113C150.375 15.8113 149.847 15.9508 149.428 16.23C149.023 16.5092 148.821 16.8912 148.821 17.376C148.821 17.7874 148.936 18.118 149.168 18.3678C149.399 18.6175 149.688 18.8159 150.035 18.9628C150.397 19.1098 150.968 19.3081 151.749 19.5579Z" fill="#34623F"/>
</svg>
